<svg width="132" height="50" viewBox="0 0 132 50" fill="none" xmlns="http://www.w3.org/2000/svg">
<path d="M1 32.7982C11.8285 33.0884 22.6156 33.2995 33.4477 33.2995C34.74 33.2995 34.8609 33.2803 35.3666 34.3299C35.7628 35.1521 36.2338 35.9412 36.6575 36.7529C37.1805 37.7547 38.1902 36.2417 38.7335 35.7503C39.7473 34.8331 40.8551 33.9361 41.7689 32.9513C41.9561 32.7496 42.2546 32.1416 42.6237 32.088C43.5814 31.949 44.8695 33.2262 45.4149 33.6615C46.4863 34.5167 47.1741 35.3938 47.9444 36.4187C49.2547 38.1618 49.9694 35.2019 50.3344 34.3021C52.7666 28.3057 54.5046 22.2745 56.1261 16.116C57.394 11.3007 59.301 6.21443 62.0923 1.80112C62.4803 1.18762 62.8906 0.501081 63.3135 1.52262C64.393 4.13047 64.837 6.97809 65.3022 9.68267C66.2751 15.3387 66.5306 20.8352 66.6455 26.518C66.7669 32.5303 67.9519 38.4847 68.2155 44.4812C68.2585 45.4595 68.0963 47.9802 69.0354 48.798C70.6177 50.1758 74.2679 44.078 74.548 43.4369C76.2198 39.6102 77.3464 35.5451 78.6651 31.6285C79.1308 30.2452 78.9254 27.8634 80.1304 26.699C80.3104 26.5251 83.735 31.3711 84.1777 31.8513C85.5096 33.2961 87.2555 32.5972 89.0797 32.0462C91.8081 31.2221 92.7489 33.2716 95.1854 33.2716C96.0973 33.2716 96.9666 32.9473 97.9069 33.0627C99.0462 33.2026 99.8675 33.5656 101.064 33.4944C103.306 33.3612 105.663 33.3865 107.833 32.8817C110.502 32.2609 113.351 30.8441 116.172 30.793C118.461 30.7514 121.188 30.798 123.464 31.0575C126.039 31.3512 128.505 31.0436 131 31.0436" stroke="#008BFF" stroke-width="2" stroke-linecap="round"/>
</svg>
