<svg width="360" height="186" viewBox="0 0 360 186" fill="none" xmlns="http://www.w3.org/2000/svg">
<path d="M1.98816 122.833C31.6889 123.939 61.276 124.743 90.9866 124.743C94.5314 124.743 94.8628 124.67 96.25 128.669C97.3366 131.801 98.6287 134.808 99.7908 137.9C101.225 141.717 103.995 135.953 105.485 134.08C108.266 130.586 111.304 127.168 113.81 123.417C114.324 122.648 115.143 120.331 116.155 120.127C118.782 119.598 122.315 124.464 123.811 126.122C126.749 129.381 128.636 132.722 130.749 136.627C134.343 143.268 136.303 131.991 137.304 128.563C143.975 105.717 148.742 82.739 153.19 59.2759C156.667 40.93 161.898 21.552 169.554 4.73773C170.618 2.40037 171.744 -0.215281 172.904 3.67667C175.865 13.6123 177.082 24.4614 178.358 34.7656C181.027 56.3143 181.728 77.2556 182.043 98.9063C182.376 121.812 185.626 144.498 186.349 167.344C186.467 171.072 186.022 180.675 188.598 183.791C192.938 189.04 202.95 165.808 203.718 163.365C208.303 148.786 211.393 133.299 215.01 118.377C216.288 113.106 215.724 104.032 219.03 99.5959C219.523 98.9334 228.916 117.396 230.13 119.225C233.784 124.73 238.572 122.067 243.576 119.968C251.059 116.829 253.64 124.637 260.323 124.637C262.824 124.637 265.208 123.401 267.787 123.841C270.912 124.374 273.165 125.757 276.448 125.486C282.595 124.978 289.061 125.074 295.013 123.151C302.334 120.786 310.148 115.388 317.885 115.193C324.165 115.035 331.644 115.213 337.886 116.201C344.948 117.32 351.712 116.148 358.556 116.148" stroke="#008BFF" stroke-width="2" stroke-linecap="round"/>
</svg>
