<svg width="659" height="336" viewBox="0 0 659 336" fill="none" xmlns="http://www.w3.org/2000/svg">
<path d="M2 221.937C56.559 223.945 110.909 225.405 165.486 225.405C171.998 225.405 172.607 225.272 175.155 232.532C177.151 238.219 179.524 243.676 181.659 249.291C184.294 256.22 189.381 245.755 192.119 242.356C197.227 236.012 202.808 229.808 207.413 222.997C208.356 221.601 209.86 217.396 211.72 217.025C216.545 216.064 223.035 224.898 225.783 227.909C231.181 233.824 234.646 239.89 238.528 246.979C245.13 259.036 248.73 238.563 250.57 232.339C262.824 190.864 271.581 149.149 279.751 106.552C286.139 73.2464 295.747 38.0665 309.811 7.54108C311.766 3.29773 313.833 -1.45086 315.964 5.61479C321.403 23.6525 323.64 43.3485 325.984 62.0551C330.886 101.176 332.174 139.194 332.752 178.499C333.364 220.084 339.335 261.269 340.663 302.745C340.879 309.512 340.062 326.946 344.794 332.603C352.766 342.133 371.158 299.956 372.569 295.522C380.992 269.054 386.668 240.937 393.312 213.847C395.659 204.279 394.624 187.805 400.696 179.751C401.602 178.549 418.857 212.067 421.087 215.388C427.798 225.381 436.595 220.547 445.786 216.736C459.533 211.037 464.273 225.212 476.55 225.212C481.144 225.212 485.524 222.969 490.262 223.767C496.002 224.735 500.14 227.245 506.171 226.753C517.463 225.832 529.34 226.007 540.274 222.515C553.722 218.221 568.076 208.422 582.288 208.068C593.824 207.781 607.563 208.103 619.029 209.898C632.003 211.929 644.427 209.802 657 209.802" stroke="#008BFF" stroke-width="3" stroke-linecap="round"/>
</svg>
