<svg width="16" height="14" viewBox="0 0 16 14" fill="none" xmlns="http://www.w3.org/2000/svg">
<path d="M4.25491 1.69215C4.25491 2.6267 3.44487 3.3843 2.44563 3.3843C1.44639 3.3843 0.636353 2.6267 0.636353 1.69215C0.636353 0.757601 1.44639 0 2.44563 0C3.44487 0 4.25491 0.757601 4.25491 1.69215Z" fill="#FAFAFA"/>
<path d="M0.883775 4.6281H3.97656V14H0.883775V4.6281Z" fill="#FAFAFA"/>
<path d="M8.95594 4.6281H5.86316V14H8.95594C8.95594 14 8.95594 11.0496 8.95594 9.20486C8.95594 8.09762 9.33401 6.98554 10.8425 6.98554C12.5474 6.98554 12.5371 8.43453 12.5292 9.55709C12.5188 11.0244 12.5436 12.5219 12.5436 14H15.6364V9.05372C15.6102 5.89538 14.7872 4.44008 12.0797 4.44008C10.4718 4.44008 9.47506 5.17006 8.95594 5.83049V4.6281Z" fill="#FAFAFA"/>
</svg>
