<svg width="18" height="14" viewBox="0 0 18 14" fill="none" xmlns="http://www.w3.org/2000/svg">
<path d="M5.98602 14C4.01689 14 2.18133 13.4273 0.636353 12.4391C1.94809 12.524 4.263 12.3207 5.70288 10.9473C3.53683 10.8479 2.55999 9.18661 2.43258 8.47667C2.61662 8.54767 3.49436 8.63286 3.98986 8.43408C1.4982 7.80933 1.11596 5.62272 1.2009 4.95538C1.66809 5.28195 2.46089 5.39554 2.77235 5.36714C0.450574 3.70588 1.28585 1.2069 1.6964 0.667343C3.36259 2.97571 5.85969 4.27217 8.94893 4.34429C8.89068 4.08883 8.85992 3.82286 8.85992 3.5497C8.85992 1.58925 10.4445 0 12.3992 0C13.4205 0 14.3408 0.43385 14.9868 1.12781C15.6692 0.96789 16.6964 0.59352 17.1985 0.269777C16.9454 1.1785 16.1574 1.93656 15.6808 2.21753C15.6848 2.22708 15.6769 2.20792 15.6808 2.21753C16.0995 2.1542 17.2323 1.93648 17.6798 1.63286C17.4585 2.14337 16.6231 2.99218 15.9376 3.46739C16.0651 9.09273 11.7612 14 5.98602 14Z" fill="#FAFAFA"/>
</svg>
